<mxfile host="app.diagrams.net" modified="2023-11-21T00:27:11.791Z" agent="Mozilla/5.0 (Windows NT 10.0; Win64; x64) AppleWebKit/537.36 (KHTML, like Gecko) Chrome/119.0.0.0 Safari/537.36" etag="I28Ptg_E2CKEek5ngjue" version="22.1.3" type="device">
  <diagram id="kgpKYQtTHZ0yAKxKKP6v" name="Page-1">
    <mxGraphModel dx="1912" dy="553" grid="1" gridSize="10" guides="1" tooltips="1" connect="1" arrows="1" fold="1" page="1" pageScale="1" pageWidth="850" pageHeight="1100" math="0" shadow="0">
      <root>
        <mxCell id="0" />
        <mxCell id="1" parent="0" />
        <mxCell id="yJgvYaT8AEDw6vxkZcOb-25" value="" style="rounded=1;whiteSpace=wrap;html=1;arcSize=6;" vertex="1" parent="1">
          <mxGeometry x="160" y="240" width="480" height="270" as="geometry" />
        </mxCell>
        <mxCell id="yJgvYaT8AEDw6vxkZcOb-26" value="GRASP-HPO" style="text;html=1;align=center;verticalAlign=middle;resizable=0;points=[];autosize=1;strokeColor=none;fillColor=none;" vertex="1" parent="1">
          <mxGeometry x="160" y="240" width="100" height="30" as="geometry" />
        </mxCell>
        <mxCell id="yJgvYaT8AEDw6vxkZcOb-27" value="" style="rounded=1;whiteSpace=wrap;html=1;arcSize=6;" vertex="1" parent="1">
          <mxGeometry x="180" y="280" width="170" height="200" as="geometry" />
        </mxCell>
        <mxCell id="yJgvYaT8AEDw6vxkZcOb-28" value="" style="rounded=1;whiteSpace=wrap;html=1;arcSize=6;" vertex="1" parent="1">
          <mxGeometry x="460" y="280" width="160" height="200" as="geometry" />
        </mxCell>
        <mxCell id="yJgvYaT8AEDw6vxkZcOb-29" value="Fase construtiva" style="text;html=1;align=center;verticalAlign=middle;resizable=0;points=[];autosize=1;strokeColor=none;fillColor=none;" vertex="1" parent="1">
          <mxGeometry x="180" y="280" width="110" height="30" as="geometry" />
        </mxCell>
        <mxCell id="yJgvYaT8AEDw6vxkZcOb-30" value="Fase de busca local" style="text;html=1;align=center;verticalAlign=middle;resizable=0;points=[];autosize=1;strokeColor=none;fillColor=none;" vertex="1" parent="1">
          <mxGeometry x="460" y="280" width="130" height="30" as="geometry" />
        </mxCell>
        <mxCell id="yJgvYaT8AEDw6vxkZcOb-32" value="" style="edgeStyle=orthogonalEdgeStyle;rounded=0;orthogonalLoop=1;jettySize=auto;html=1;entryX=0;entryY=0.5;entryDx=0;entryDy=0;" edge="1" parent="1" source="yJgvYaT8AEDw6vxkZcOb-31" target="yJgvYaT8AEDw6vxkZcOb-33">
          <mxGeometry relative="1" as="geometry">
            <Array as="points">
              <mxPoint x="110" y="290" />
              <mxPoint x="110" y="370" />
            </Array>
          </mxGeometry>
        </mxCell>
        <mxCell id="yJgvYaT8AEDw6vxkZcOb-31" value="dataset" style="shape=datastore;whiteSpace=wrap;html=1;" vertex="1" parent="1">
          <mxGeometry x="10" y="260" width="60" height="60" as="geometry" />
        </mxCell>
        <mxCell id="yJgvYaT8AEDw6vxkZcOb-50" style="edgeStyle=orthogonalEdgeStyle;rounded=0;orthogonalLoop=1;jettySize=auto;html=1;exitX=1;exitY=0.5;exitDx=0;exitDy=0;entryX=0;entryY=0.5;entryDx=0;entryDy=0;" edge="1" parent="1" source="yJgvYaT8AEDw6vxkZcOb-33" target="yJgvYaT8AEDw6vxkZcOb-49">
          <mxGeometry relative="1" as="geometry" />
        </mxCell>
        <mxCell id="yJgvYaT8AEDw6vxkZcOb-51" value="Top X&amp;nbsp;&lt;br&gt;combinações" style="edgeLabel;html=1;align=center;verticalAlign=middle;resizable=0;points=[];" vertex="1" connectable="0" parent="yJgvYaT8AEDw6vxkZcOb-50">
          <mxGeometry x="-0.0378" relative="1" as="geometry">
            <mxPoint as="offset" />
          </mxGeometry>
        </mxCell>
        <mxCell id="yJgvYaT8AEDw6vxkZcOb-33" value="Seleção aleatória" style="rounded=0;whiteSpace=wrap;html=1;" vertex="1" parent="1">
          <mxGeometry x="210" y="350" width="120" height="40" as="geometry" />
        </mxCell>
        <mxCell id="yJgvYaT8AEDw6vxkZcOb-36" value="" style="shape=curlyBracket;whiteSpace=wrap;html=1;rounded=1;labelPosition=left;verticalLabelPosition=middle;align=right;verticalAlign=middle;" vertex="1" parent="1">
          <mxGeometry x="-50" y="425" width="20" height="80" as="geometry" />
        </mxCell>
        <mxCell id="yJgvYaT8AEDw6vxkZcOb-41" style="edgeStyle=orthogonalEdgeStyle;rounded=0;orthogonalLoop=1;jettySize=auto;html=1;exitX=1;exitY=0.5;exitDx=0;exitDy=0;entryX=0;entryY=0.5;entryDx=0;entryDy=0;" edge="1" parent="1" source="yJgvYaT8AEDw6vxkZcOb-40" target="yJgvYaT8AEDw6vxkZcOb-33">
          <mxGeometry relative="1" as="geometry">
            <Array as="points">
              <mxPoint x="110" y="465" />
              <mxPoint x="110" y="370" />
            </Array>
          </mxGeometry>
        </mxCell>
        <mxCell id="yJgvYaT8AEDw6vxkZcOb-40" value="&lt;ul&gt;&lt;li&gt;HP1: uniform(0,1)&lt;/li&gt;&lt;li&gt;HP2: choice (&#39;1&#39;, &#39;2&#39;)&lt;/li&gt;&lt;li&gt;HP3: random(0,255)&lt;br&gt;&lt;/li&gt;&lt;li&gt;...&lt;/li&gt;&lt;/ul&gt;" style="text;strokeColor=none;fillColor=none;html=1;whiteSpace=wrap;verticalAlign=middle;overflow=hidden;" vertex="1" parent="1">
          <mxGeometry x="-60" y="410" width="160" height="110" as="geometry" />
        </mxCell>
        <mxCell id="yJgvYaT8AEDw6vxkZcOb-44" style="edgeStyle=orthogonalEdgeStyle;rounded=0;orthogonalLoop=1;jettySize=auto;html=1;curved=1;" edge="1" parent="1">
          <mxGeometry relative="1" as="geometry">
            <mxPoint x="300" y="305" as="sourcePoint" />
            <mxPoint x="290" y="305" as="targetPoint" />
            <Array as="points">
              <mxPoint x="310" y="305" />
              <mxPoint x="310" y="285" />
              <mxPoint x="290" y="285" />
            </Array>
          </mxGeometry>
        </mxCell>
        <mxCell id="yJgvYaT8AEDw6vxkZcOb-48" value="Grid Search intervalada" style="rounded=0;whiteSpace=wrap;html=1;dashed=1;" vertex="1" parent="1">
          <mxGeometry x="210" y="410" width="120" height="40" as="geometry" />
        </mxCell>
        <mxCell id="yJgvYaT8AEDw6vxkZcOb-54" style="edgeStyle=orthogonalEdgeStyle;rounded=0;orthogonalLoop=1;jettySize=auto;html=1;exitX=1;exitY=0.5;exitDx=0;exitDy=0;" edge="1" parent="1" source="yJgvYaT8AEDw6vxkZcOb-49">
          <mxGeometry relative="1" as="geometry">
            <mxPoint x="710" y="370" as="targetPoint" />
          </mxGeometry>
        </mxCell>
        <mxCell id="yJgvYaT8AEDw6vxkZcOb-49" value="Hill Climbing" style="rounded=0;whiteSpace=wrap;html=1;" vertex="1" parent="1">
          <mxGeometry x="480" y="350" width="120" height="40" as="geometry" />
        </mxCell>
        <mxCell id="yJgvYaT8AEDw6vxkZcOb-53" value="Simulated Annealing" style="rounded=0;whiteSpace=wrap;html=1;dashed=1;" vertex="1" parent="1">
          <mxGeometry x="480" y="410" width="120" height="40" as="geometry" />
        </mxCell>
        <mxCell id="yJgvYaT8AEDw6vxkZcOb-56" value="" style="shape=curlyBracket;whiteSpace=wrap;html=1;rounded=1;labelPosition=left;verticalLabelPosition=middle;align=right;verticalAlign=middle;" vertex="1" parent="1">
          <mxGeometry x="730" y="250" width="20" height="80" as="geometry" />
        </mxCell>
        <mxCell id="yJgvYaT8AEDw6vxkZcOb-57" value="&lt;ul&gt;&lt;li&gt;HP1: 0.5&lt;/li&gt;&lt;li&gt;HP2: &#39;1&#39;&lt;/li&gt;&lt;li&gt;HP3: 45&lt;br&gt;&lt;/li&gt;&lt;li&gt;...&lt;/li&gt;&lt;/ul&gt;" style="text;strokeColor=none;fillColor=none;html=1;whiteSpace=wrap;verticalAlign=middle;overflow=hidden;" vertex="1" parent="1">
          <mxGeometry x="720" y="235" width="160" height="110" as="geometry" />
        </mxCell>
        <mxCell id="yJgvYaT8AEDw6vxkZcOb-62" value="" style="shape=curlyBracket;whiteSpace=wrap;html=1;rounded=1;labelPosition=left;verticalLabelPosition=middle;align=right;verticalAlign=middle;" vertex="1" parent="1">
          <mxGeometry x="730" y="345" width="20" height="80" as="geometry" />
        </mxCell>
        <mxCell id="yJgvYaT8AEDw6vxkZcOb-63" value="&lt;ul&gt;&lt;li&gt;HP1: 0.6&lt;/li&gt;&lt;li&gt;HP2: &#39;2&#39;&lt;/li&gt;&lt;li&gt;HP3: 33&lt;br&gt;&lt;/li&gt;&lt;li&gt;...&lt;/li&gt;&lt;/ul&gt;" style="text;strokeColor=none;fillColor=none;html=1;whiteSpace=wrap;verticalAlign=middle;overflow=hidden;" vertex="1" parent="1">
          <mxGeometry x="720" y="330" width="160" height="110" as="geometry" />
        </mxCell>
        <mxCell id="yJgvYaT8AEDw6vxkZcOb-64" value="..." style="text;html=1;align=center;verticalAlign=middle;resizable=0;points=[];autosize=1;strokeColor=none;fillColor=none;" vertex="1" parent="1">
          <mxGeometry x="765" y="450" width="30" height="30" as="geometry" />
        </mxCell>
        <mxCell id="yJgvYaT8AEDw6vxkZcOb-65" value="96%" style="text;html=1;strokeColor=none;fillColor=none;align=center;verticalAlign=middle;whiteSpace=wrap;rounded=0;" vertex="1" parent="1">
          <mxGeometry x="840" y="270" width="60" height="30" as="geometry" />
        </mxCell>
        <mxCell id="yJgvYaT8AEDw6vxkZcOb-67" value="94%" style="text;html=1;strokeColor=none;fillColor=none;align=center;verticalAlign=middle;whiteSpace=wrap;rounded=0;" vertex="1" parent="1">
          <mxGeometry x="840" y="370" width="60" height="30" as="geometry" />
        </mxCell>
      </root>
    </mxGraphModel>
  </diagram>
</mxfile>
